<?xml version="1.0" encoding="UTF-8"?><svg xmlns="http://www.w3.org/2000/svg" xmlns:xlink="http://www.w3.org/1999/xlink" height="32.0" preserveAspectRatio="xMidYMid meet" version="1.0" viewBox="0.3 0.0 31.5 32.0" width="31.5" zoomAndPan="magnify">
 <g fill-rule="evenodd">
  <g id="change1_1"><path d="m0.273 29.123v-22.776a2.4 2.4 0 0 1 2.398 -2.399h22.775z" fill="#1ea361"/></g>
  <g id="change2_1"><path d="m0.273 29.6v-0.478l25.174-25.172h0.478a2.4 2.4 0 0 1 2.399 2.398v0.48l-25.174 25.172h-0.48a2.4 2.4 0 0 1 -2.398 -2.399" fill="#fedb43"/></g>
  <g id="change3_1"><path d="m3.15 32l11.15-11.148 11.147 11.148z" fill="#5384c4"/></g>
  <g id="change4_1"><path d="m25.447 32l-11.149-11.15 2.876-2.877 11.15 11.15v0.478a2.4 2.4 0 0 1 -2.399 2.399h-0.478z" fill="#fff"/></g>
  <g id="change5_1"><path d="m28.324 29.123l-11.15-11.15 11.15-11.15z" fill="#c2c2c1"/></g>
 </g>
 <g id="change6_1"><path d="m5.276 7.05c1.427-0.653 3.213-0.387 4.372 0.682l-1.108 1.1c-1.16-1.15-3.337-0.605-3.88 0.917-0.7 1.498 0.47 3.467 2.14 3.488 1.093 0.127 2.184-0.605 2.415-1.694-0.764 0.001-1.526-0.006-2.288 0.006l-0.014-1.413 3.84 0.052c0.096 0.933 0.03 1.923-0.472 2.74-0.787 1.464-2.644 2.104-4.216 1.734-1.943-0.403-3.397-2.396-3.132-4.37 0.135-1.392 1.067-2.665 2.343-3.242" fill="#efefef"/></g>
 <g id="change7_1"><path d="m23.424 0h0.912c2.273 0.13 4.495 1.24 5.872 3.067 0.902 1.154 1.406 2.586 1.52 4.04v0.54c-0.053 2.82-1.857 5.134-3.42 7.327-1.754 2.478-3.374 5.18-3.824 8.233-0.12 0.517 0.024 1.242-0.594 1.475-0.145-0.113-0.315-0.207-0.417-0.365-0.183-1.707-0.6-3.394-1.338-4.953-0.827-1.817-1.977-3.46-3.147-5.065-0.712-0.963-1.383-1.96-1.938-3.024-0.872-1.593-1.197-3.475-0.84-5.262 0.292-1.4 1.03-2.72 2.053-3.73 1.377-1.347 3.24-2.163 5.161-2.283m-0.177 4.966c-1.078 0.24-1.983 1.194-2.074 2.3a2.61 2.61 0 0 0 1.426 2.552 2.85 2.85 0 0 0 3.179 -0.401 2.59 2.59 0 0 0 0.663 -2.873c-0.487-1.218-1.93-1.912-3.194-1.6" fill="#dc4b3e"/></g>
 <g id="change8_1"><path d="m23.247 4.966c1.263-0.323 2.708 0.37 3.194 1.6 0.4 0.973 0.124 2.176-0.663 2.873a2.85 2.85 0 0 1 -3.179 0.401c-0.93-0.46-1.54-1.513-1.426-2.552 0.1-1.116 0.996-2.07 2.074-2.3" fill="#802c27"/></g>
</svg>