<?xml version="1.0" encoding="UTF-8"?><svg xmlns="http://www.w3.org/2000/svg" xmlns:xlink="http://www.w3.org/1999/xlink" height="3.5" preserveAspectRatio="xMidYMid meet" version="1.0" viewBox="1.4 0.3 6.6 3.5" width="6.6" zoomAndPan="magnify">
 <g fill-rule="evenodd" transform="matrix(.037376 0 0 .037376 1.07 -1.3193)">
  <g id="change1_1"><path d="m8.504 128.22h5.8v-22.977l9.058 20.033c1.026 2.408 2.5 3.3 5.354 3.3s4.24-0.893 5.3-3.3l9.013-20.033v22.977h5.845v-22.977c0-2.23-0.893-3.303-2.767-3.883-4.417-1.338-7.362-0.178-8.7 2.81l-8.878 19.81-8.567-19.81c-1.294-2.988-4.284-4.148-8.745-2.81-1.83 0.58-2.722 1.652-2.722 3.883l-0.001 22.977zm45.198-18.694h5.845v12.627c-0.044 0.713 0.223 2.32 3.4 2.363 1.65 0.045 12.582 0 12.67 0v-15.08h5.845v20.658c0 5.086-6.3 6.2-9.236 6.246h-18.38v-3.88h18.427c3.748-0.402 3.302-2.275 3.302-2.9v-1.518h-12.36c-5.756-0.045-9.46-2.588-9.503-5.488v-13.03zm125.37-14.635c-3.568-0.09-6.336 0.268-8.656 1.25-0.668 0.27-1.74 0.27-1.828 1.116 0.357 0.355 0.4 0.936 0.713 1.428 0.535 0.893 1.473 2.096 2.32 2.72 0.938 0.715 1.875 1.428 2.855 2.053 1.74 1.07 3.703 1.695 5.398 2.766 0.982 0.625 1.963 1.428 2.945 2.098 0.5 0.357 0.803 0.938 1.428 1.16v-0.135c-0.312-0.4-0.402-0.98-0.713-1.428-0.447-0.445-0.893-0.848-1.34-1.293-1.293-1.74-2.9-3.258-4.64-4.506-1.428-0.982-4.55-2.32-5.13-3.97l-0.088-0.09c0.98-0.09 2.14-0.447 3.078-0.715 1.518-0.4 2.9-0.312 4.46-0.713 0.715-0.18 1.428-0.402 2.143-0.625v-0.4c-0.803-0.803-1.383-1.874-2.23-2.632-2.275-1.963-4.775-3.882-7.363-5.488-1.383-0.892-3.168-1.473-4.64-2.23-0.537-0.268-1.428-0.402-1.74-0.848-0.805-0.98-1.25-2.275-1.83-3.436-1.293-2.454-2.543-5.175-3.658-7.763-0.803-1.74-1.295-3.48-2.275-5.086-4.596-7.585-9.594-12.18-17.268-16.687-1.65-0.937-3.613-1.34-5.7-1.83l-3.346-0.18c-0.715-0.312-1.428-1.16-2.053-1.562-2.543-1.606-9.102-5.086-10.977-0.49-1.205 2.9 1.785 5.755 2.8 7.228 0.76 1.026 1.74 2.186 2.277 3.346 0.3 0.758 0.4 1.562 0.713 2.365 0.713 1.963 1.383 4.15 2.32 5.98 0.5 0.937 1.025 1.92 1.65 2.767 0.357 0.49 0.982 0.714 1.115 1.517-0.625 0.893-0.668 2.23-1.025 3.347-1.607 5.042-0.982 11.288 1.293 14.99 0.715 1.115 2.4 3.57 4.686 2.632 2.008-0.803 1.56-3.346 2.14-5.577 0.135-0.535 0.045-0.892 0.312-1.25v0.09l1.83 3.703c1.383 2.186 3.793 4.462 5.8 5.98 1.07 0.803 1.918 2.187 3.256 2.677v-0.135h-0.088c-0.268-0.4-0.67-0.58-1.027-0.892-0.803-0.803-1.695-1.785-2.32-2.677-1.873-2.498-3.523-5.265-4.996-8.12-0.715-1.383-1.34-2.9-1.918-4.283-0.27-0.536-0.27-1.34-0.715-1.606-0.67 0.98-1.65 1.83-2.143 3.034-0.848 1.918-0.936 4.283-1.248 6.737-0.18 0.045-0.1 0-0.18 0.09-1.426-0.356-1.918-1.83-2.453-3.078-1.338-3.168-1.562-8.254-0.402-11.913 0.312-0.937 1.652-3.882 1.117-4.774-0.27-0.848-1.16-1.338-1.652-2.008-0.58-0.848-1.203-1.918-1.605-2.855-1.07-2.5-1.605-5.265-2.766-7.764-0.537-1.16-1.473-2.365-2.232-3.435-0.848-1.205-1.783-2.053-2.453-3.48-0.223-0.49-0.535-1.294-0.178-1.83 0.088-0.357 0.268-0.49 0.623-0.58 0.58-0.49 2.232 0.134 2.812 0.4 1.65 0.67 3.033 1.294 4.416 2.23 0.625 0.446 1.295 1.294 2.098 1.518h0.938c1.428 0.312 3.033 0.09 4.37 0.49 2.365 0.76 4.506 1.874 6.426 3.08 5.844 3.703 10.664 8.968 13.92 15.26 0.535 1.026 0.758 1.963 1.25 3.034 0.938 2.187 2.098 4.417 3.033 6.56 0.938 2.097 1.83 4.24 3.168 5.98 0.67 0.937 3.346 1.427 4.55 1.918 0.893 0.4 2.275 0.76 3.08 1.25 1.516 0.937 3.033 2.008 4.46 3.034 0.713 0.534 2.945 1.65 3.078 2.54zm-45.5-38.772a7.09 7.09 0 0 0 -1.828 0.223v0.09h0.088c0.357 0.714 0.982 1.205 1.428 1.83l1.027 2.142 0.088-0.09c0.625-0.446 0.938-1.16 0.938-2.23-0.268-0.312-0.312-0.625-0.535-0.937-0.268-0.446-0.848-0.67-1.206-1.026z" fill="#00678c"/></g>
  <g id="change2_1"><path d="m85.916 128.22h16.776c1.963 0 3.838-0.4 5.354-1.115 2.543-1.16 3.748-2.72 3.748-4.773v-4.283c0-1.65-1.383-3.213-4.148-4.283-1.428-0.535-3.213-0.848-4.953-0.848h-7.05c-2.365 0-3.48-0.715-3.793-2.275-0.044-0.178-0.044-0.357-0.044-0.535v-2.633c0-0.135 0-0.312 0.044-0.49 0.312-1.205 0.937-1.518 3-1.74h17.177v-3.883h-16.33c-2.365 0-3.614 0.135-4.73 0.492-3.436 1.07-4.953 2.766-4.953 5.754v3.393c0 2.63 2.945 4.863 7.942 5.398 0.535 0.045 1.115 0.045 1.695 0.045h6.024c0.223 0 0.445 0 0.623 0.045 1.83 0.178 2.633 0.49 3.168 1.158 0.357 0.357 0.447 0.67 0.447 1.072v3.39c0 0.4-0.268 0.938-0.803 1.383s-1.385 0.758-2.5 0.803c-0.223 0-0.355 0.045-0.58 0.045h-16.114zm62.195-6.736c0 3.97 3 6.2 8.97 6.648 0.58 0.045 1.115 0.088 1.695 0.088h15.17v-3.88h-15.303c-3.393 0-4.686-0.848-4.686-2.9v-20.078h-5.86v20.123zm-32.615 0.177v-13.83c0-3.525 2.498-5.668 7.363-6.336 0.535-0.045 1.07-0.09 1.56-0.09h11.064c0.58 0 1.072 0.045 1.652 0.09 4.863 0.668 7.316 2.81 7.316 6.336v13.83c0 2.855-1.025 4.373-3.436 5.4l5.71 5.174h-6.736l-4.64-4.193-4.686 0.268h-6.246a13.66 13.66 0 0 1 -3.391 -0.445c-3.7-1.028-5.53-2.99-5.53-6.204zm6.29-0.31c0 0.178 0.1 0.355 0.135 0.58 0.312 1.605 1.828 2.498 4.148 2.498h5.266l-4.818-4.373h6.736l4.238 3.838c0.805-0.447 1.295-1.072 1.473-1.875 0.045-0.178 0.045-0.4 0.045-0.58v-13.252c0-0.178 0-0.355-0.045-0.535-0.312-1.516-1.828-2.363-4.104-2.363h-8.79c-2.588 0-4.283 1.115-4.283 2.898z" fill="#ce8b2c"/></g>
 </g>
</svg>