<?xml version="1.0" encoding="UTF-8"?><svg xmlns="http://www.w3.org/2000/svg" xmlns:xlink="http://www.w3.org/1999/xlink" height="243.0" preserveAspectRatio="xMidYMid" version="1.1" viewBox="-9.3 0.0 269.1 243.0" width="269.1" zoomAndPan="magnify">
 <g>
  <path d="m177.38 169.73c9.45-0.97 16.62-9.12 16.29-18.89-0.33-9.78-8.47-17.59-18.24-17.59h-0.66c-10.09 0.32-17.91 8.79-17.59 18.89 0.33 4.89 2.28 9.12 5.22 12.05-11.08 21.83-28.02 37.8-53.43 51.15-17.267 9.12-35.184 12.38-53.102 10.1-14.659-1.95-26.061-8.47-33.228-19.22-10.425-15.96-11.402-33.23-2.606-50.5 6.189-12.38 15.962-21.5 22.152-26.06-1.303-4.23-3.258-11.4-4.235-16.61-47.237 34.2-42.35 80.46-28.016 102.29 10.75 16.29 32.577 26.39 56.684 26.39 6.515 0 13.031-0.65 19.546-2.28 41.695-8.14 73.295-32.9 91.215-69.72zm57.34-40.39c-24.76-29-61.25-44.962-102.95-44.962h-5.21c-2.93-5.864-9.12-9.774-15.96-9.774h-0.65c-10.102 0.326-17.921 8.796-17.595 18.896 0.326 9.77 8.465 17.59 18.245 17.59h0.65c7.17-0.32 13.36-4.88 15.96-11.07h5.87c24.75 0 48.21 7.16 69.39 21.17 16.28 10.75 28.01 24.76 34.53 41.7 5.54 13.68 5.21 27.04-0.65 38.44-9.13 17.27-24.44 26.72-44.64 26.72-13.03 0-25.41-3.91-31.92-6.84-3.58 3.25-10.1 8.47-14.66 11.72 14.01 6.52 28.34 10.1 42.02 10.1 31.28 0 54.41-17.26 63.2-34.53 9.45-18.89 8.8-51.47-15.63-79.16zm-165.5 45.93c0.326 9.77 8.47 17.59 18.243 17.59h0.652c10.099-0.32 17.92-8.79 17.59-18.89-0.32-9.78-8.469-17.59-18.242-17.59h-0.651c-0.652 0-1.629 0-2.281 0.32-13.356-22.15-18.894-46.26-16.94-72.322 1.303-19.547 7.819-36.488 19.221-50.497 9.447-12.054 27.693-17.918 40.073-18.243 34.53-0.652 49.19 42.351 50.17 59.618 4.23 0.977 11.4 3.258 16.28 4.887-3.91-52.777-36.48-80.143-67.76-80.143-29.316 0-56.355 21.176-67.105 52.451-14.986 41.7-5.213 81.769 13.03 113.37-1.628 2.28-2.606 5.87-2.28 9.45z" fill="#764ABC"/>
 </g>
</svg>