<?xml version="1.0" encoding="UTF-8"?><svg xmlns="http://www.w3.org/2000/svg" xmlns:xlink="http://www.w3.org/1999/xlink" height="18.2" preserveAspectRatio="xMidYMid meet" version="1.0" viewBox="-0.0 5.6 32.0 18.2" width="32.0" zoomAndPan="magnify">
 <defs>
  <clipPath id="A">
   <path d="m76 2v46h-22v23h-18.42l-0.206 2c-1.15 12.53 1.036 24.088 6.063 33.97l1.688 3.03c1 1.817 2.2 3.523 3.438 5.188s1.686 2.583 2.47 3.688c13.287 14.92 33.097 22.12 55.967 22.12 50.648 0 93.633-22.438 112.66-72.844 13.49 1.384 26.44-2.076 32.34-13.593-9.4-5.424-21.478-3.685-28.437-0.187l18.44-52.376-72 46h-23v-46z"/>
  </clipPath>
 </defs>
 <g transform="matrix(.67942 0 0 .67942 -2.0861 13.782)">
  <g id="change1_1"><path d="m30.305-3.553h4.222v4.316h2.135a9.26 9.26 0 0 0 2.934 -0.492c0.46-0.156 0.974-0.372 1.426-0.644-0.596-0.778-0.9-1.76-1-2.73-0.122-1.317 0.144-3.032 1.036-4.063l0.444-0.513 0.53 0.425c1.332 1.07 2.452 2.565 2.65 4.27 1.603-0.472 3.486-0.36 4.9 0.456l0.58 0.335-0.305 0.596c-1.187 2.33-3.687 3.053-6.13 2.925-3.656 9.105-11.615 13.416-21.265 13.416-4.986 0-9.56-1.864-12.164-6.287-0.153-0.275-0.283-0.562-0.422-0.844-0.88-1.947-1.173-4.08-0.975-6.2l0.06-0.638h3.6v-4.325h4.222v-4.222h8.445v-4.222h5.067v8.445" fill="#394d54"/></g>
  <g clip-path="url(#A)" transform="matrix(.18466 0 0 .18466 3.0705 -11.998)">
   <g id="B">
    <g id="C" transform="translate(0 -22.866)">
     <g id="change2_1"><path d="m123.86 3.8h19.818v19.817h-19.82z" fill="#00acd3"/></g>
     <g id="change3_1"><path d="m123.86 26.676h19.818v19.818h-19.82z" fill="#20c2ef"/></g>
     <g id="change4_1"><path d="m126.29 21.977v-16.517m2.972 16.516v-16.516m3.002 16.516v-16.516m3.003 16.516v-16.516m3.003 16.516v-16.516m2.97 16.516v-16.516" fill="inherit" id="D" stroke="#394d54" stroke-width="1.56"/></g>
     <use xlink:actuate="onLoad" xlink:href="#D" xlink:show="embed" xlink:type="simple" xmlns:xlink="http://www.w3.org/1999/xlink" y="22.866"/>
    </g>
    <use transform="matrix(1 0 0 -1 22.866 4.5727)" xlink:actuate="onLoad" xlink:href="#C" xlink:show="embed" xlink:type="simple" xmlns:xlink="http://www.w3.org/1999/xlink"/>
   </g>
   <use x="-91.464" xlink:actuate="onLoad" xlink:href="#B" xlink:show="embed" xlink:type="simple" xmlns:xlink="http://www.w3.org/1999/xlink" y="45.732"/>
   <use x="-45.732" xlink:actuate="onLoad" xlink:href="#B" xlink:show="embed" xlink:type="simple" xmlns:xlink="http://www.w3.org/1999/xlink" y="45.732"/>
   <use xlink:actuate="onLoad" xlink:href="#B" xlink:show="embed" xlink:type="simple" xmlns:xlink="http://www.w3.org/1999/xlink" y="45.732"/>
   <g id="change5_1"><path d="m221.57 54.38c1.533-11.915-7.384-21.275-12.914-25.718-6.373 7.368-7.363 26.678 2.635 34.807-5.58 4.956-17.337 9.448-29.376 9.448h-147.92c-1.17 12.567 0 73.083 0 73.083h217l-0.987-91.424c-9.4-5.424-21.484-3.694-28.443-0.197" fill="#17b5eb"/></g>
   <g id="change4_2"><path d="m34 89v57h217v-57" fill="inherit" fill-opacity=".17"/></g>
   <g id="change6_2"><path d="m111.24 140.9c-13.54-6.425-20.972-15.16-25.107-24.694l-41.133 1.79 21 28 45.237-5.1" fill="#d4edf1"/></g>
   <g id="change4_3"><path d="m222.5 53.938v0.03c-20.86 26.9-50.783 50.38-82.906 62.72-28.655 11.008-53.638 11.06-70.875 2.22-1.856-1.048-3.676-2.212-5.5-3.312-12.637-8.832-19.754-23.44-19.156-42.687h-10.06v73.091h217v-96h-25z" fill="inherit" fill-opacity=".085"/></g>
  </g>
  <path d="m11.496 9.613c2.616 0.143 5.407 0.17 7.842-0.594" fill="none" stroke="#394d54" stroke-linecap="round" stroke-width=".628"/>
  <g id="change6_1"><path d="m21.937 7.753a1.01 1.01 0 0 1 -1.009 1.009 1.01 1.01 0 0 1 -1.01 -1.009 1.01 1.01 0 0 1 1.01 -1.01 1.01 1.01 0 0 1 1.009 1.01z" fill="#d4edf1"/></g>
  <g id="change1_2"><path d="m21.2 7.08c-0.088 0.05-0.148 0.146-0.148 0.256 0 0.163 0.132 0.295 0.295 0.295 0.112 0 0.2-0.062 0.26-0.154a0.73 0.73 0 0 1 0.055 0.277c0 0.4-0.324 0.723-0.723 0.723s-0.723-0.324-0.723-0.723 0.324-0.723 0.723-0.723a0.72 0.72 0 0 1 0.262 0.049zm-18.13-2.43h46.964c-1.023-0.26-3.235-0.6-2.87-1.95-1.86 2.152-6.344 1.5-7.475 0.448-1.26 1.828-8.597 1.133-9.108-0.3-1.58 1.854-6.475 1.854-8.055 0-0.512 1.424-7.848 2.12-9.1 0.3-1.142 1.052-5.626 1.705-7.486-0.448 0.365 1.34-1.848 1.7-2.87 1.95" fill="#394d54"/></g>
 </g>
</svg>